<svg width="100px" height="50px" xmlns="http://www.w3.org/2000/svg" viewBox="130 24 236 100" style="background: rgba(0, 0, 0, 0);" preserveAspectRatio="xMidYMid"><defs><filter id="editing-hole" x="-100%" y="-100%" width="300%" height="300%"><feFlood flood-color="#000" result="black"></feFlood><feMorphology operator="dilate" radius="2" in="SourceGraphic" result="erode"></feMorphology><feGaussianBlur in="erode" stdDeviation="4" result="blur"></feGaussianBlur><feOffset in="blur" dx="2" dy="2" result="offset"></feOffset><feComposite operator="atop" in="offset" in2="black" result="merge"></feComposite><feComposite operator="in" in="merge" in2="SourceGraphic" result="inner-shadow"></feComposite></filter></defs><g filter="url(#editing-hole)"><g transform="translate(170.55999755859375, 97.40500068664551)"><path d="M44.16-38.41L44.16-6.41L44.16-6.41Q44.16-5.09 43.66-3.92L43.66-3.92L43.66-3.92Q43.16-2.75 42.28-1.88L42.28-1.88L42.28-1.88Q41.41-1 40.23-0.50L40.23-0.50L40.23-0.50Q39.06 0 37.75 0L37.75 0L12.16 0L12.16 0Q10.84 0 9.67-0.50L9.67-0.50L9.67-0.50Q8.50-1 7.63-1.88L7.63-1.88L7.63-1.88Q6.75-2.75 6.25-3.92L6.25-3.92L6.25-3.92Q5.75-5.09 5.75-6.41L5.75-6.41L5.75-38.41L5.75-38.41Q5.75-39.72 6.25-40.89L6.25-40.89L6.25-40.89Q6.75-42.06 7.63-42.92L7.63-42.92L7.63-42.92Q8.50-43.78 9.67-44.30L9.67-44.30L9.67-44.30Q10.84-44.81 12.16-44.81L12.16-44.81L37.75-44.81L37.75-44.81Q39.06-44.81 40.23-44.30L40.23-44.30L40.23-44.30Q41.41-43.78 42.28-42.92L42.28-42.92L42.28-42.92Q43.16-42.06 43.66-40.89L43.66-40.89L43.66-40.89Q44.16-39.72 44.16-38.41L44.16-38.41ZM37.75-38.41L12.16-38.41L12.16-6.41L37.75-6.41L37.75-38.41ZM84.84-23.38L84.84-23.38L84.84-23.38Q86.25-22.94 87.41-22.13L87.41-22.13L87.41-22.13Q88.56-21.31 89.38-20.05L89.38-20.05L89.38-20.05Q90.19-18.78 90.63-17.06L90.63-17.06L90.63-17.06Q91.06-15.34 91.06-13.13L91.06-13.13L91.06-10.88L91.06-10.88Q91.06 0 80.19 0L80.19 0L55.66 0L55.66-44.81L78.91-44.81L78.91-44.81Q89.78-44.81 89.78-33.91L89.78-33.91L89.78-33.09L89.78-33.09Q89.78-29.31 88.58-26.92L88.58-26.92L88.58-26.92Q87.38-24.53 84.84-23.38ZM80-19.53L61.94-19.53L61.94-6.28L80-6.28L80-6.28Q82.53-6.28 83.66-7.47L83.66-7.47L83.66-7.47Q84.78-8.66 84.78-11.19L84.78-11.19L84.78-14.66L84.78-14.66Q84.78-17.22 83.66-18.38L83.66-18.38L83.66-18.38Q82.53-19.53 80-19.53L80-19.53ZM78.72-38.53L61.94-38.53L61.94-25.78L79.16-25.78L79.16-25.78Q81.47-25.88 82.48-27.05L82.48-27.05L82.48-27.05Q83.50-28.22 83.50-30.66L83.50-30.66L83.50-33.59L83.50-33.59Q83.50-36.16 82.38-37.34L82.38-37.34L82.38-37.34Q81.25-38.53 78.72-38.53L78.72-38.53ZM100.66-44.81L107.06-44.81L107.06 0L100.66 0L100.66-44.81ZM146.72-19.19L124.97-19.19L124.97-19.19Q123.66-19.19 122.48-19.70L122.48-19.70L122.48-19.70Q121.31-20.22 120.44-21.08L120.44-21.08L120.44-21.08Q119.56-21.94 119.06-23.11L119.06-23.11L119.06-23.11Q118.56-24.28 118.56-25.59L118.56-25.59L118.56-38.41L118.56-38.41Q118.56-39.72 119.06-40.89L119.06-40.89L119.06-40.89Q119.56-42.06 120.44-42.92L120.44-42.92L120.44-42.92Q121.31-43.78 122.48-44.30L122.48-44.30L122.48-44.30Q123.66-44.81 124.97-44.81L124.97-44.81L146.72-44.81L146.72-44.81Q148.03-44.81 149.20-44.30L149.20-44.30L149.20-44.30Q150.38-43.78 151.25-42.92L151.25-42.92L151.25-42.92Q152.13-42.06 152.63-40.89L152.63-40.89L152.63-40.89Q153.13-39.72 153.13-38.41L153.13-38.41L153.13-32.63L146.72-32.63L146.72-38.41L124.97-38.41L124.97-25.59L146.72-25.59L146.72-25.59Q148.03-25.59 149.20-25.09L149.20-25.09L149.20-25.09Q150.38-24.59 151.25-23.72L151.25-23.72L151.25-23.72Q152.13-22.84 152.63-21.67L152.63-21.67L152.63-21.67Q153.13-20.50 153.13-19.19L153.13-19.19L153.13-6.41L153.13-6.41Q153.13-5.09 152.63-3.92L152.63-3.92L152.63-3.92Q152.13-2.75 151.25-1.88L151.25-1.88L151.25-1.88Q150.38-1 149.20-0.50L149.20-0.50L149.20-0.50Q148.03 0 146.72 0L146.72 0L124.34 0L124.34 0Q123.03 0 121.86-0.50L121.86-0.50L121.86-0.50Q120.69-1 119.81-1.88L119.81-1.88L119.81-1.88Q118.94-2.75 118.44-3.92L118.44-3.92L118.44-3.92Q117.94-5.09 117.94-6.41L117.94-6.41L117.94-12.16L124.34-12.16L124.34-6.41L146.72-6.41L146.72-19.19Z" fill="#fff"></path></g></g><style>text {
  font-size: 64px;
  font-family: Arial Black;
  dominant-baseline: central;
  text-anchor: middle;
}</style></svg>